<?xml version="1.0" encoding="utf-8"?>
<!-- Generator: Adobe Illustrator 25.4.1, SVG Export Plug-In . SVG Version: 6.00 Build 0)  -->
<svg version="1.1" id="Слой_1" xmlns="http://www.w3.org/2000/svg" xmlns:xlink="http://www.w3.org/1999/xlink" x="0px" y="0px"
	 viewBox="0 0 2222.8 1438.7" style="enable-background:new 0 0 2222.8 1438.7;" xml:space="preserve">
<style type="text/css">
	.st0{fill:#58585A;}
	.st1{fill:#F36F21;}
	.st2{fill:#233862;}
	.st3{fill:#FFB27D;}
	.st4{fill:#0F2549;}
	.st5{fill:#2B478B;}
	.st6{fill:#ED975D;}
	.st7{fill:#FFFFFF;}
	.st8{fill:#ED7D2B;}
	.st9{fill:#182D4F;}
	.st10{fill:#ED6A11;}
	.st11{fill:#1B3051;}
</style>
<path class="st0" d="M317,1428.2c0,0-229.5-276.5-117.4-561.1C272.7,681.6,547,579.9,701.8,681.6c65.9,43.3,277.4,1.5,390.4-177.8
	c219.5-348.4,985.4-136.8,846,398.1c-67.5,258.8,205.4,268.2,66.3,527L317,1428.2z"/>
<g>
	<path d="M600.5,1432h0.7c5.6-0.1,10-4.7,9.4-10L573,1046.9l-32.8,2.9l53.9,377.1C594.7,1429.8,597.4,1432,600.5,1432z"/>
</g>
<g>
	<path d="M238.9,1432h-0.7c-5.6-0.1-10-4.7-9.4-10l37.6-375.1l32.8,2.9l-53.9,377.1C244.7,1429.8,242,1432,238.9,1432z"/>
</g>
<g>
	<path d="M865.5,1432h0.7c5.6-0.1,10-4.7,9.4-10L838,1046.9l-32.8,2.9l53.9,377.1C859.6,1429.8,862.3,1432,865.5,1432z"/>
</g>
<path d="M250.1,992.3l-66.7-329.2c-8.6-44.6,28.4-85.3,76.3-84.2l128.6,2.9c44.4,1,82.9,30.7,95.2,73.3L581,992.3H250.1z"/>
<path d="M290.4,992.3l-66.7-329.2c-8.6-44.6,28.4-85.3,76.3-84.2l128.6,2.9c44.4,1,82.9,30.7,95.2,73.3l97.5,337.2H290.4z"/>
<path d="M268.7,1052.4h508.7c10.2,0,18.6-8.4,18.6-18.6v-22.9c0-10.2-8.4-18.6-18.6-18.6H250.1v41.5
	C250.1,1044,258.4,1052.4,268.7,1052.4z"/>
<path d="M507.4,1052.4h324.3c8.2,0,15-6.7,15-15v-30.1c0-8.2-6.7-15-15-15H507.4c-8.2,0-15,6.7-15,15v30.1
	C492.4,1045.6,499.1,1052.4,507.4,1052.4z"/>
<path d="M1070.5,229.1H886.1c-8.5,0-15.4-6.9-15.4-15.4v-178c0-8.5,6.9-15.4,15.4-15.4h184.4c8.5,0,15.4,6.9,15.4,15.4v178
	C1085.9,222.1,1079,229.1,1070.5,229.1z"/>
<path class="st1" d="M1062.5,220H894.1c-7.7,0-14.1-6.3-14.1-14.1V43.4c0-7.7,6.3-14.1,14.1-14.1h168.5c7.7,0,14.1,6.3,14.1,14.1
	V206C1076.6,213.7,1070.3,220,1062.5,220z"/>
<g>
	<g>
		<circle cx="978.3" cy="48.4" r="4.5"/>
		<path d="M1009.8,54.7c1.2-2.2,3.9-2.9,6.1-1.7c2.2,1.2,2.9,3.9,1.7,6.1c-1.2,2.2-3.9,2.9-6.1,1.7
			C1009.4,59.5,1008.6,56.8,1009.8,54.7z"/>
		<path d="M1040.7,79.1c2.1-1.3,4.8-0.7,6.2,1.3c1.3,2.1,0.7,4.8-1.3,6.2c-2.1,1.3-4.8,0.7-6.2-1.3
			C1038,83.2,1038.6,80.5,1040.7,79.1z"/>
		<path d="M1055.9,117c2.5,0,4.5,2,4.5,4.5s-2,4.5-4.5,4.5s-4.5-2-4.5-4.5C1051.5,119,1053.5,117,1055.9,117z"/>
		<path d="M1048.1,161c1.7,1.7,1.7,4.6,0,6.3s-4.6,1.7-6.3,0c-1.7-1.7-1.7-4.6,0-6.3C1043.6,159.3,1046.4,159.3,1048.1,161z"/>
		<path d="M1020.1,189.1c1.7,1.7,1.7,4.6,0,6.3s-4.6,1.7-6.3,0s-1.7-4.6,0-6.3C1015.6,187.3,1018.4,187.3,1020.1,189.1z"/>
		<path d="M973.9,203.6c0-2.5,2-4.5,4.5-4.5s4.5,2,4.5,4.5s-2,4.5-4.5,4.5C975.9,208,973.9,206,973.9,203.6z"/>
	</g>
	<g>
		<path d="M946.7,54.7c-1.2-2.2-3.9-2.9-6.1-1.7c-2.2,1.2-2.9,3.9-1.7,6.1c1.2,2.2,3.9,2.9,6.1,1.7
			C947.1,59.5,947.9,56.8,946.7,54.7z"/>
		<path d="M915.8,79.1c-2.1-1.3-4.8-0.7-6.2,1.3c-1.3,2.1-0.7,4.8,1.3,6.2c2.1,1.3,4.8,0.7,6.2-1.3
			C918.5,83.2,917.9,80.5,915.8,79.1z"/>
		<path d="M900.6,117c-2.5,0-4.5,2-4.5,4.5s2,4.5,4.5,4.5s4.5-2,4.5-4.5C905,119,903,117,900.6,117z"/>
		<path d="M908.4,161c-1.7,1.7-1.7,4.6,0,6.3s4.6,1.7,6.3,0s1.7-4.6,0-6.3C912.9,159.3,910.1,159.3,908.4,161z"/>
		<circle cx="939.5" cy="192.2" r="4.5"/>
	</g>
</g>
<g>
	<path d="M977.1,121.5c0-2.5,2-4.5,4.5-4.5s4.5,2,4.5,4.5s-2,4.5-4.5,4.5S977.1,124,977.1,121.5z"/>
	<g>
		<rect x="981" y="65.8" width="1.2" height="55.7"/>
	</g>
	<g>
		<rect x="977" y="108" transform="matrix(0.7866 -0.6175 0.6175 0.7866 144.6957 638.3196)" width="37.5" height="3.7"/>
	</g>
</g>
<g>
	<g>
		<path class="st2" d="M693.2,923.4c-27.5,47.9-62.1,66.4-62.1,66.4h-144C487.1,989.8,714.2,886.9,693.2,923.4z"/>
		<g>
			<path class="st3" d="M870.8,1399.3c-1.6,15.1,19.5,19,43.8,20.5c24.4,1.5,16.9,6.4,50.3,12.8c33.3,6.4,46.8-2.6,49.3-7.1
				c2.2-4-13.3-10.4-29.8-17.7c-2.1-0.9-4.2-1.8-6.2-2.8c-18.5-8.4-28.8-25.2-43.2-40.9c-13.6-14.8-26.2-62-26.2-62l-45.3-10.2
				c0,0,12.3,42.4,16.5,60.5c2.5,10.6-1.5,22.5-5,31.5C873.2,1388.9,871.3,1393.9,870.8,1399.3z"/>
			<path class="st4" d="M914.6,1419.7c24.4,1.5,16.9,6.4,50.3,12.8c33.3,6.4,46.8-2.6,49.3-7.1c2.2-4-13.3-10.4-29.8-17.7l-0.3,0.3
				c0,0-23.6,7.7-50.6,0.1c-22-6.2-43.3-19.7-58.5-24.1c-1.9,4.9-3.8,9.9-4.3,15.2C869.2,1414.4,890.2,1418.3,914.6,1419.7z"/>
			<path class="st2" d="M802.1,874.4c-24.4-17.1-185.6-47.6-267.9-56.5l-91-79c0,0-77.4,114.7-78,202.4c-0.3,40.9,18.6,45,18.6,45
				s291.6,2.2,304.4,3.5c20.9,2.2,48.5,54.3,55.4,101.7c6.9,47.5,128.5,240.5,128.5,240.5s25.4,8.1,37.1,7.4c12.6-0.7,18.4-5,18.4-5
				S857.1,913,802.1,874.4z"/>
			<path class="st3" d="M795.4,1399.3c-1.6,15.1,19.5,19,43.8,20.5c24.4,1.5,16.9,6.4,50.3,12.8c33.4,6.4,46.8-2.6,49.3-7.1
				c2.2-4-13.3-10.4-29.8-17.7c-2.1-0.9-4.2-1.8-6.2-2.8c-18.5-8.4-28.8-25.2-43.2-40.9c-13.6-14.8-26.2-62-26.2-62l-45.3-10.2
				c0,0,12.3,42.4,16.5,60.5c2.5,10.6-1.5,22.5-5,31.5C797.8,1388.9,795.9,1393.9,795.4,1399.3z"/>
			<path class="st2" d="M839.2,1419.7c24.4,1.5,16.9,6.4,50.3,12.8c33.4,6.4,46.8-2.6,49.3-7.1c2.2-4-13.3-10.4-29.8-17.7l-0.3,0.3
				c0,0-23.6,7.7-50.6,0.1c-22-6.2-43.3-19.7-58.5-24.1c-1.9,4.9-3.8,9.9-4.3,15.2C793.8,1414.4,814.8,1418.3,839.2,1419.7z"/>
			<path class="st5" d="M726.1,874.4c-21.2-14.9-84.9-26.4-155.2-35c-19.4-2.4-35.4-16.5-40.2-35.5l0,0l-163.5-65
				c0,0-77.4,114.7-78,202.4c-0.3,40.9,18.6,45,18.6,45s291.6,2.2,304.4,3.5c20.9,2.2,48.5,54.3,55.4,101.7
				c6.9,47.5,128.5,240.5,128.5,240.5s25.4,8.1,37.1,7.4c12.6-0.7,18.4-5,18.4-5S781,913,726.1,874.4z"/>
			<path d="M507.2,262.5c-22.5-11.8-56.7-13.4-62.2-14.1c-66.5-8.9-106.5,87.7-108.8,116.9c-4.3,54-32.9,62.2-73.1,96
				C182.5,529,206.2,607.8,250.2,637c26.4,17.6,73,0,73,0c0.7,0.5,127.4-70.8,189.9-105.2C606.7,518.4,564.5,292.6,507.2,262.5z"/>
			<path class="st3" d="M493.3,498.5c0.3,0.1-29.5,13.7-51.1,6.6c-20.3-6.7-38.1-37.2-37.8-37.2c8.8-1.3,17.7-9.9,20.2-61.3l3.9,1
				l65.5,16.5c0,0-2.6,20.7-3.7,40.3C489.5,480.9,489.7,496.6,493.3,498.5z"/>
			<path class="st6" d="M494,424.1c0,0,0,4.3-2.4,23.6c-37-9.3-53.4-21.6-64.9-35.7L494,424.1z"/>
			<path class="st3" d="M508,426.7c0,0-86.6,14.1-94.5-40c-7.9-54-24.5-88.6,30.5-99.9c54.9-11.3,68.7,7.8,75.8,25.2
				C526.8,329.4,530.3,421.6,508,426.7z"/>
			<path d="M508.1,284.6c0,0-39.3,62.1-74.4,76.8s-52.3,7.2-52.3,7.2s16-24.2,20.1-56.7c1.2-9.6,7.5-17.8,16.4-21.4
				C443.1,280.4,491.8,264.5,508.1,284.6z"/>
			<path d="M473.6,290.6c0,0,23,11.8,32.5,22.9c9.2,10.7,19.7,39.7,19,52.7c0,0,11.4-62.4-12.3-83.8
				C487.7,259.6,473.6,290.6,473.6,290.6z"/>
			<path class="st7" d="M562.6,630.6c-2.6,176-0.7,139.2-20,155.9c-4.6,4-17.7,6.4-34.8,7.5c-54,3.6-148.8-5.3-152.4-15.3
				c-12.4-34.5-3.7-45.2-14-98.1c-1.1-5.6-2.4-11.7-4-18.3c-8.7-36.3-17.1-48.6,13.6-106.9c27.9-52.8,60.6-95.7,63.2-94.1
				c73.5,43.6,76,7.1,76,7.1S563.9,544.7,562.6,630.6z"/>
			<path class="st7" d="M490.2,468.4c0,0,75.2,12.8,84.1,45.3c8.9,32.6,61.1,224,61.1,224s-38.4,6.9-56.2-10.9
				C561.5,709,517.4,562,517.4,562L490.2,468.4z"/>
			<path class="st0" d="M507.8,794c-54,3.6-148.8-5.3-152.4-15.3c-12.4-34.5-3.7-45.2-14-98.1l26-73.3c0,0-4.3,81.6,19.8,103.1
				c24,21.5,98.5,41.4,110.2,59.4C503,778.5,506.7,787.1,507.8,794z"/>
			<path class="st3" d="M446,759.7c0,0,53.2-11.9,61.8-7.1c8.6,4.7,29.6,21.9,32.2,27.9c2.6,6-19.1-4.5-26.2-6.4
				c-4.6-1.2-16.6,3-22.6,5c-25.1,8.4-40.5,4.1-40.5,4.1L446,759.7z"/>
			<path class="st7" d="M414.2,461.3c0,0-75.3,4.4-100.1,38.9c-34.8,48.6-103.9,255.6-64.3,283.2c44.6,31.1,203,8.1,203,8.1
				s5.3-24.6-2.1-36.6c-7.3-11.9-126.5-31.2-132-36.7s68.7-107.2,68.7-123.7C387.4,578.1,414.2,461.3,414.2,461.3z"/>
			<path class="st3" d="M510.4,767.4c0,0,11.2,14.4,14.8,16.1c3.7,1.7,6,1.3,6,1.3l-7.5-13.5L510.4,767.4z"/>
			<path class="st3" d="M507.8,752.6l32.4,15.7c0,0-1.4,2.3-5.4,2.1s-14.1-3.9-14.1-3.9L507.8,752.6z"/>
		</g>
	</g>
</g>
<g>
	<path class="st8" d="M627.3,789.9H476.6l0,0c0-6.6,5.4-12,12-12h138.6L627.3,789.9L627.3,789.9z"/>
	<polygon class="st8" points="626.8,625.9 859.7,625.9 803.8,789.9 569.5,789.9 	"/>
	<polygon class="st1" points="863.1,625.9 807.3,789.9 572.9,789.9 630.3,625.9 	"/>
	<path class="st7" d="M737.6,706.4c-1.4,6.3-7.7,11.3-14,11.3s-10.2-5.1-8.7-11.3c1.4-6.3,7.7-11.3,14-11.3S739,700.1,737.6,706.4z"
		/>
</g>
<g>
	<path class="st9" d="M424.6,826.8h1020.5c4.3,0,7.8-3.5,7.8-7.8v-21.4c0-4.3-3.5-7.8-7.8-7.8H424.6c-4.3,0-7.8,3.5-7.8,7.8V819
		C416.8,823.3,420.3,826.8,424.6,826.8z"/>
	<g>
		<path class="st9" d="M1470.1,1434.7l0.4-0.1c5.2-0.6,8.9-5.3,8.3-10.4l-90.9-615.6l-33.3,1l107,618.9
			C1462.2,1432.5,1466,1435.2,1470.1,1434.7z"/>
	</g>
	<g>
		<path class="st9" d="M390.4,1434.7l-0.4-0.1c-5.2-0.6-8.9-5.3-8.3-10.4l90.9-615.6l33.3,1l-107,618.9
			C398.3,1432.5,394.5,1435.2,390.4,1434.7z"/>
	</g>
	<g>
		<path class="st9" d="M600.9,1434.7l-0.4-0.1c-5.2-0.6-8.9-5.3-8.3-10.4l90.9-615.6l33.3,1l-107,618.9
			C608.8,1432.5,605,1435.2,600.9,1434.7z"/>
	</g>
</g>
<path d="M2212.6,1438.7H18.6c-2.1,0-3.9-1.7-3.9-3.9v-3.2c0-2.1,1.7-3.9,3.9-3.9h2194c2.1,0,3.9,1.7,3.9,3.9v3.2
	C2216.4,1436.9,2214.7,1438.7,2212.6,1438.7z"/>
<g>
	<path class="st2" d="M1137.4,1434.2h180.5c8.7-10.6,5.5-49.7,4.2-62.4c-0.3-2.6-0.5-4.1-0.5-4.1s-61.6-49.3-70.1-11.5
		c-0.3,1.2-0.6,2.3-0.9,3.5c-10.7,35.3-58.5,51.3-86.1,55.8C1146.5,1418.4,1139.9,1427.7,1137.4,1434.2z"/>
	<path class="st2" d="M1629.8,847.9c-6.5,0-309.1,56.8-359.2,118.8c-25,31-28.7,388.4-28.7,388.4s30.9,38.4,97.7,16.1
		c0,0,49-244.6,45.4-318.7c-1-20.5,206.7-3,244.8-12.8c38-9.8,130.9-92.6,110.5-132.9C1719.8,866.4,1629.8,847.9,1629.8,847.9z"/>
	<path class="st3" d="M1272,760.3c0,0-61,0.8-75.5,7c-14.4,6.2-43.7,20.4-35.9,22.6c7.8,2.2,45.2-0.9,53.3,0.3
		c8.1,1.2,18-0.3,23-0.3c4.9,0,28,0,28,0L1272,760.3z"/>
	<path class="st3" d="M1200.6,613.8c0,0-20.8-14.9-41-17.8c-11.5-1.6-22.7-3.7-29.5-6.1c-18.6-6.6-56-40.1-53.1-44.1
		c9-12.6,52.6,14.1,60.2,11.2c7.6-2.9-14.6-18.7-6.9-24.2c4-2.9,13.5,11.6,21.2,13.1c10.4,2,18.6,16.7,21.7,17.5
		c6.1,1.5,32.9,21.4,32.9,21.4L1200.6,613.8z"/>
	<path class="st10" d="M1599.7,440.2c0,0-46.5,14.4-92.2,140.5c-45.8,126.1-63.2,132.9-79.8,137.8c-16.6,4.9-162.7,34-162.7,34v37.4
		h225c0,0,84.4-80.3,109.7-134.3C1625,601.5,1599.7,440.2,1599.7,440.2z"/>
	<path class="st11" d="M1057.7,1434.2h180.5c8.7-10.6,5.5-49.7,4.2-62.4c-0.3-2.6-0.5-4.1-0.5-4.1s-61.6-49.3-70.1-11.5
		c-0.3,1.2-0.6,2.3-0.9,3.5c-10.7,35.3-58.5,51.3-86.1,55.8C1066.8,1418.4,1060.1,1427.7,1057.7,1434.2z"/>
	<path class="st5" d="M1540.7,847.9c-6.5,0-309.1,56.8-359.2,118.8c-25,31-28.7,388.4-28.7,388.4s30.9,38.4,97.7,16.1
		c0,0,49-244.6,45.4-318.7c-1-20.5,206.7-3,244.8-12.8c38-9.8,130.9-92.6,110.5-132.9C1630.6,866.4,1540.7,847.9,1540.7,847.9z"/>
	<path class="st3" d="M1559.6,480.1c21.8-1.8,44.6-7.6,64.3-14c24.7-8,44.5-19.7,31.7-42.2c-11.8-20.8-30.9-67.2-29.6-105.6
		l-45.9,37l-31.2,25.1c0,0,0.1,14.8,3.5,40.8c0.6,4.7,1.4,9.8,2.2,15.3c0.7,4.4-1.3,8.8-5.1,11.2c-0.2,0.1-0.5,0.3-0.7,0.4
		C1533.4,457.8,1541.4,481.6,1559.6,480.1z"/>
	<path class="st6" d="M1549,374.3c0,0-1.6,5.4,1.1,25.2c27.8-4.5,53.8-26.7,53.8-26.7c-14.1-3.9-19.3-19.2-29.8-17.7L1549,374.3z"/>
	<path class="st3" d="M1523.3,378.8c0,0,106.9,17.8,116.9-49c10-66.7,30.6-109.4-37.2-123.5c-67.8-14.2-84.9,9.3-93.7,30.8
		C1500.5,258.5,1495.7,372.5,1523.3,378.8z"/>
	<path d="M1493.5,207.5c-4.6,16.1,7.7,35.6,28.3,42.1c30.6,9.6,23.8,47.1,37.6,46.6c13.8-0.5,19.3-21.6,31.6-4.7
		c10.5,14.4-8.7,31.4-7.4,39.3c2.3,13.5,23.4,41.2,42.5,39.8c19.1-1.4,54.8-92.1,47.7-120.1c-7.1-28.1-35.7-57.6-62.7-61.7
		c-27-4.1-64.6,7.6-73.3,7.6S1496,198.8,1493.5,207.5z"/>
	<path class="st1" d="M1753.2,532.8c-15.4-62.2-58.1-127.4-87-127.4c-49.2,0.1-119.9,13.1-148.5,83.5
		c-21,51.9-49.1,350.3-17.4,371.5c72.5,48.5,240.5,147.6,270.3,46.6C1798,814.5,1780,640.7,1753.2,532.8z"/>
	<path class="st1" d="M1622.2,470.9c-14-36.5-59.3-49.1-90.2-25.1c-16.7,13-37.1,31.5-61.8,57.8c-91.8,97.8-110.5,97.2-127.7,95.1
		c-17.2-2-162.9-32.9-162.9-32.9s-7.5,5.5-11.9,14.4c-5.9,11.9-2.9,20-2.9,20c-5.7-3.7,51.6,35.8,80.2,51.6
		c37.7,20.8,94.5,40.3,117.1,47.7c6.4,2.1,13.3,2,19.7-0.3c33.6-12.1,146.3-56.2,238.1-132.7
		C1644.1,546.3,1635.2,504.8,1622.2,470.9z"/>
	<path class="st7" d="M1659.6,406l-11.1-25.1c0,0-99.7,8.1-116.5,64.9C1532.1,445.8,1609.3,407.2,1659.6,406z"/>
</g>
<g>
	<path d="M1901.7,1432h0.7c5.6-0.1,10-4.7,9.4-10l-37.6-375.1l-32.8,2.9l53.9,377.1C1895.9,1429.8,1898.6,1432,1901.7,1432z"/>
</g>
<g>
	<path d="M1708.4,1432h0.7c5.6-0.1,10-4.7,9.4-10l-37.6-375.1l-32.8,2.9l53.9,377.1C1702.6,1429.8,1705.2,1432,1708.4,1432z"/>
</g>
<g>
	<path d="M1345.5,1432h-0.7c-5.6-0.1-10-4.7-9.4-10l37.6-375.1l32.8,2.9l-53.9,377.1C1351.3,1429.8,1348.6,1432,1345.5,1432z"/>
</g>
<path d="M1891.1,993.8l35.6-313.3c4.7-45.1-10.4-89.3-75.6-92.8l-114.6-7c-67.9-2.8-98.6,53.7-107.2,97.3l-68,344.4L1891.1,993.8z"
	/>
<path d="M1871.9,1052.4h-508.7c-10.2,0-18.6-8.4-18.6-18.6v-22.9c0-10.2,8.4-18.6,18.6-18.6h527.2v41.5
	C1890.5,1044,1882.2,1052.4,1871.9,1052.4z"/>
<path d="M1876.1,1052.4h-300.3c-7.9,0-14.4-6.5-14.4-14.4v-31.2c0-7.9,6.5-14.4,14.4-14.4h314.8v45.6
	C1890.5,1045.9,1884,1052.4,1876.1,1052.4z"/>
</svg>
